<mxfile host="app.diagrams.net" modified="2024-07-18T07:13:32.519Z" agent="Mozilla/5.0 (Macintosh; Intel Mac OS X 10_15_7) AppleWebKit/537.36 (KHTML, like Gecko) Chrome/126.0.0.0 Safari/537.36" etag="fcZNjLll7RD4_lQxgGZo" version="24.7.1" type="device">
  <diagram name="Page-1" id="TcDiQN1JeJaWo3jdCZd5">
    <mxGraphModel dx="1237" dy="754" grid="1" gridSize="10" guides="1" tooltips="1" connect="1" arrows="1" fold="1" page="1" pageScale="1" pageWidth="827" pageHeight="1169" math="0" shadow="0">
      <root>
        <mxCell id="0" />
        <mxCell id="1" parent="0" />
        <mxCell id="rntFgLfmuWbcoeCOks6G-1" value="" style="ellipse;whiteSpace=wrap;html=1;aspect=fixed;" vertex="1" parent="1">
          <mxGeometry x="80" y="70" width="380" height="380" as="geometry" />
        </mxCell>
        <mxCell id="rntFgLfmuWbcoeCOks6G-2" value="" style="ellipse;whiteSpace=wrap;html=1;aspect=fixed;" vertex="1" parent="1">
          <mxGeometry x="125" y="115" width="290" height="290" as="geometry" />
        </mxCell>
        <mxCell id="rntFgLfmuWbcoeCOks6G-3" value="A" style="ellipse;whiteSpace=wrap;html=1;aspect=fixed;fillColor=#fff2cc;strokeColor=#d6b656;" vertex="1" parent="1">
          <mxGeometry x="220" y="75" width="40" height="40" as="geometry" />
        </mxCell>
        <mxCell id="rntFgLfmuWbcoeCOks6G-4" value="S3" style="ellipse;whiteSpace=wrap;html=1;aspect=fixed;fillColor=#dae8fc;strokeColor=#6c8ebf;" vertex="1" parent="1">
          <mxGeometry x="140" y="115" width="40" height="40" as="geometry" />
        </mxCell>
        <mxCell id="rntFgLfmuWbcoeCOks6G-5" value="H" style="ellipse;whiteSpace=wrap;html=1;aspect=fixed;fillColor=#fff2cc;strokeColor=#d6b656;" vertex="1" parent="1">
          <mxGeometry x="90" y="190" width="40" height="40" as="geometry" />
        </mxCell>
        <mxCell id="rntFgLfmuWbcoeCOks6G-6" value="G" style="ellipse;whiteSpace=wrap;html=1;aspect=fixed;fillColor=#fff2cc;strokeColor=#d6b656;" vertex="1" parent="1">
          <mxGeometry x="85" y="280" width="40" height="40" as="geometry" />
        </mxCell>
        <mxCell id="rntFgLfmuWbcoeCOks6G-7" value="S2" style="ellipse;whiteSpace=wrap;html=1;aspect=fixed;fillColor=#dae8fc;strokeColor=#6c8ebf;" vertex="1" parent="1">
          <mxGeometry x="110" y="330" width="40" height="40" as="geometry" />
        </mxCell>
        <mxCell id="rntFgLfmuWbcoeCOks6G-8" value="F" style="ellipse;whiteSpace=wrap;html=1;aspect=fixed;fillColor=#fff2cc;strokeColor=#d6b656;" vertex="1" parent="1">
          <mxGeometry x="160" y="380" width="40" height="40" as="geometry" />
        </mxCell>
        <mxCell id="rntFgLfmuWbcoeCOks6G-9" value="S1" style="ellipse;whiteSpace=wrap;html=1;aspect=fixed;fillColor=#dae8fc;strokeColor=#6c8ebf;" vertex="1" parent="1">
          <mxGeometry x="210" y="405" width="40" height="40" as="geometry" />
        </mxCell>
        <mxCell id="rntFgLfmuWbcoeCOks6G-11" value="D" style="ellipse;whiteSpace=wrap;html=1;aspect=fixed;fillColor=#fff2cc;strokeColor=#d6b656;" vertex="1" parent="1">
          <mxGeometry x="360" y="365" width="40" height="40" as="geometry" />
        </mxCell>
        <mxCell id="rntFgLfmuWbcoeCOks6G-12" value="S0" style="ellipse;whiteSpace=wrap;html=1;aspect=fixed;fillColor=#dae8fc;strokeColor=#6c8ebf;" vertex="1" parent="1">
          <mxGeometry x="414" y="280" width="40" height="40" as="geometry" />
        </mxCell>
        <mxCell id="rntFgLfmuWbcoeCOks6G-13" value="C" style="ellipse;whiteSpace=wrap;html=1;aspect=fixed;fillColor=#fff2cc;strokeColor=#d6b656;" vertex="1" parent="1">
          <mxGeometry x="410" y="190" width="40" height="40" as="geometry" />
        </mxCell>
        <mxCell id="rntFgLfmuWbcoeCOks6G-14" value="B" style="ellipse;whiteSpace=wrap;html=1;aspect=fixed;fillColor=#fff2cc;strokeColor=#d6b656;" vertex="1" parent="1">
          <mxGeometry x="370" y="120" width="40" height="40" as="geometry" />
        </mxCell>
        <mxCell id="rntFgLfmuWbcoeCOks6G-15" value="E" style="ellipse;whiteSpace=wrap;html=1;aspect=fixed;fillColor=#fff2cc;strokeColor=#d6b656;" vertex="1" parent="1">
          <mxGeometry x="280" y="405" width="40" height="40" as="geometry" />
        </mxCell>
        <mxCell id="rntFgLfmuWbcoeCOks6G-20" value="&lt;table style=&quot;border-collapse: collapse; width: 65pt;&quot; width=&quot;87&quot; cellspacing=&quot;0&quot; cellpadding=&quot;0&quot; border=&quot;0&quot;&gt;&lt;colgroup&gt;&lt;col style=&quot;width: 65pt;&quot; width=&quot;87&quot;&gt;&lt;/colgroup&gt;&lt;tbody&gt;&lt;tr style=&quot;height: 16pt;&quot; height=&quot;21&quot;&gt;&lt;td style=&quot;padding-top: 1px; padding-right: 1px; padding-left: 1px; font-size: 12pt; font-family: &amp;quot;Aptos Narrow&amp;quot;, sans-serif; vertical-align: bottom; border: none; text-wrap: nowrap; height: 16pt; width: 65pt;&quot; width=&quot;87&quot; height=&quot;21&quot;&gt;Server&lt;/td&gt;&lt;/tr&gt;&lt;tr style=&quot;height: 16pt;&quot; height=&quot;21&quot;&gt;&lt;td style=&quot;padding-top: 1px; padding-right: 1px; padding-left: 1px; font-size: 12pt; font-family: &amp;quot;Aptos Narrow&amp;quot;, sans-serif; vertical-align: bottom; border: none; text-wrap: nowrap; height: 16pt;&quot; height=&quot;21&quot;&gt;S0 ---&amp;gt; A,B,C&lt;/td&gt;&lt;/tr&gt;&lt;tr style=&quot;height: 16pt;&quot; height=&quot;21&quot;&gt;&lt;td style=&quot;padding-top: 1px; padding-right: 1px; padding-left: 1px; font-size: 12pt; font-family: &amp;quot;Aptos Narrow&amp;quot;, sans-serif; vertical-align: bottom; border: none; text-wrap: nowrap; height: 16pt;&quot; height=&quot;21&quot;&gt;S1------&amp;gt; D, E&lt;/td&gt;&lt;/tr&gt;&lt;tr style=&quot;height: 16pt;&quot; height=&quot;21&quot;&gt;&lt;td style=&quot;padding-top: 1px; padding-right: 1px; padding-left: 1px; font-size: 12pt; font-family: &amp;quot;Aptos Narrow&amp;quot;, sans-serif; vertical-align: bottom; border: none; text-wrap: nowrap; height: 16pt;&quot; height=&quot;21&quot;&gt;S2---------&amp;gt; F&lt;/td&gt;&lt;/tr&gt;&lt;tr style=&quot;height: 16pt;&quot; height=&quot;21&quot;&gt;&lt;td style=&quot;padding-top: 1px; padding-right: 1px; padding-left: 1px; font-size: 12pt; font-family: &amp;quot;Aptos Narrow&amp;quot;, sans-serif; vertical-align: bottom; border: none; text-wrap: nowrap; height: 16pt;&quot; height=&quot;21&quot;&gt;S3------&amp;gt;G, H&lt;/td&gt;&lt;/tr&gt;&lt;/tbody&gt;&lt;/table&gt;" style="text;html=1;align=center;verticalAlign=middle;whiteSpace=wrap;rounded=0;" vertex="1" parent="1">
          <mxGeometry x="500" y="60" width="125" height="160" as="geometry" />
        </mxCell>
        <mxCell id="rntFgLfmuWbcoeCOks6G-23" value="&lt;span style=&quot;color: rgb(107, 107, 107); font-family: sohne, &amp;quot;Helvetica Neue&amp;quot;, Helvetica, Arial, sans-serif; font-style: normal; font-variant-ligatures: normal; font-variant-caps: normal; letter-spacing: normal; orphans: 2; text-align: center; text-indent: 0px; text-transform: none; widows: 2; word-spacing: 0px; -webkit-text-stroke-width: 0px; white-space: normal; background-color: rgb(255, 255, 255); text-decoration-thickness: initial; text-decoration-style: initial; text-decoration-color: initial; float: none; display: inline !important;&quot;&gt;&lt;font style=&quot;font-size: 18px;&quot;&gt;&lt;b&gt;Hash ring example. The hash range for server S1 is depicted in above&lt;/b&gt;&lt;/font&gt;&lt;/span&gt;" style="text;html=1;align=center;verticalAlign=middle;whiteSpace=wrap;rounded=0;" vertex="1" parent="1">
          <mxGeometry x="85" y="570" width="620" height="30" as="geometry" />
        </mxCell>
        <mxCell id="rntFgLfmuWbcoeCOks6G-27" value="" style="endArrow=classic;html=1;rounded=0;" edge="1" parent="1">
          <mxGeometry width="50" height="50" relative="1" as="geometry">
            <mxPoint x="460" y="510" as="sourcePoint" />
            <mxPoint x="230" y="450" as="targetPoint" />
          </mxGeometry>
        </mxCell>
        <mxCell id="rntFgLfmuWbcoeCOks6G-28" value="" style="endArrow=classic;html=1;rounded=0;entryX=1.043;entryY=0.705;entryDx=0;entryDy=0;entryPerimeter=0;" edge="1" parent="1" target="rntFgLfmuWbcoeCOks6G-12">
          <mxGeometry width="50" height="50" relative="1" as="geometry">
            <mxPoint x="460" y="510" as="sourcePoint" />
            <mxPoint x="500" y="430" as="targetPoint" />
          </mxGeometry>
        </mxCell>
        <mxCell id="rntFgLfmuWbcoeCOks6G-30" value="&lt;font style=&quot;font-size: 24px;&quot;&gt;Hash Range of S1&lt;/font&gt;" style="text;html=1;align=center;verticalAlign=middle;resizable=0;points=[];autosize=1;strokeColor=none;fillColor=none;" vertex="1" parent="1">
          <mxGeometry x="454" y="420" width="220" height="40" as="geometry" />
        </mxCell>
        <mxCell id="rntFgLfmuWbcoeCOks6G-31" value="" style="rounded=0;whiteSpace=wrap;html=1;fillOpacity=0;" vertex="1" parent="1">
          <mxGeometry width="830" height="630" as="geometry" />
        </mxCell>
      </root>
    </mxGraphModel>
  </diagram>
</mxfile>
